# This file uses centimeters as units for non-parametric coordinates.

mtllib machine.mtl
g default
v -0.812052 -0.009962 -0.500000
v 0.812051 -0.009962 -0.500000
v -0.812052 2.853210 -0.500000
v 0.812051 2.853210 -0.500000
v -0.812052 2.853210 -1.500000
v 0.812051 2.853210 -1.500000
v -0.812052 -0.009962 -1.500000
v 0.812051 -0.009962 -1.500000
v -0.487232 -0.009962 -0.500000
v -0.487232 -0.009962 -1.500000
v -0.487232 2.853210 -1.500000
v -0.487232 2.853210 -0.500000
v -0.812052 0.562672 -0.500000
v -0.487232 0.562672 -0.500000
v 0.812051 0.562672 -0.500000
v 0.812051 0.562672 -1.500000
v -0.487232 0.562672 -1.500000
v -0.812052 0.562672 -1.500000
v 0.712051 0.662672 -1.458434
v -0.387232 0.662672 -1.458434
v -0.387232 2.753210 -1.458434
v 0.712051 2.753210 -1.458434
v -0.287232 0.190038 -1.500000
v -0.287232 0.362673 -1.500000
v 0.612051 0.362673 -1.500000
v 0.612051 0.190038 -1.500000
v -0.287232 0.190038 -1.393285
v -0.287232 0.362673 -1.393285
v 0.612051 0.362673 -1.393285
v 0.612051 0.190038 -1.393285
v 0.732832 0.641891 -1.500000
v 0.712051 0.662672 -1.479219
v -0.408013 0.641891 -1.500000
v -0.387232 0.662672 -1.479219
v -0.408013 2.773991 -1.500000
v -0.387232 2.753210 -1.479219
v 0.732832 2.773991 -1.500000
v 0.712051 2.753210 -1.479219
vt 0.375000 0.000000
vt 0.625000 0.000000
vt 0.375000 0.250000
vt 0.625000 0.250000
vt 0.375000 0.500000
vt 0.375000 0.750000
vt 0.625000 0.750000
vt 0.375000 1.000000
vt 0.625000 1.000000
vt 0.875000 0.000000
vt 0.875000 0.250000
vt 0.125000 0.000000
vt 0.125000 0.250000
vt 0.425000 0.000000
vt 0.425000 1.000000
vt 0.425000 0.750000
vt 0.425000 0.250000
vt 0.375000 0.050000
vt 0.425000 0.050000
vt 0.625000 0.050000
vt 0.875000 0.050000
vt 0.125000 0.050000
vt 0.375000 0.700000
vt 0.425000 0.750000
vt 0.425000 0.700000
vt 0.625000 0.700000
vt 0.625000 0.750000
vt 0.425000 0.750000
vt 0.425000 0.700000
vt 0.625000 0.700000
vt 0.625000 0.750000
vt 0.425000 0.700000
vt 0.625000 0.700000
vt 0.425000 0.500000
vt 0.425000 0.700000
vt 0.625000 0.500000
vt 0.425000 0.500000
vt 0.625000 0.700000
vt 0.625000 0.500000
vt 0.425000 0.700000
vt 0.625000 0.700000
vt 0.425000 0.500000
vt 0.425000 0.700000
vt 0.625000 0.500000
vt 0.425000 0.500000
vt 0.625000 0.700000
vt 0.625000 0.500000
vn 0.000000 0.000000 1.000000
vn 0.000000 0.000000 1.000000
vn 0.000000 0.000000 1.000000
vn 0.000000 0.000000 1.000000
vn 0.000000 1.000000 0.000000
vn 0.000000 1.000000 0.000000
vn 0.000000 1.000000 0.000000
vn 0.000000 1.000000 0.000000
vn 0.000000 0.000000 -1.000000
vn 0.000000 0.000000 -1.000000
vn 0.000000 0.000000 -1.000000
vn 0.000000 0.000000 -1.000000
vn 0.000000 -1.000000 0.000000
vn 0.000000 -1.000000 0.000000
vn 0.000000 -1.000000 0.000000
vn 0.000000 -1.000000 0.000000
vn 1.000000 0.000000 0.000000
vn 1.000000 0.000000 0.000000
vn 1.000000 0.000000 0.000000
vn 1.000000 0.000000 0.000000
vn -1.000000 0.000000 0.000000
vn -1.000000 0.000000 0.000000
vn -1.000000 0.000000 0.000000
vn -1.000000 0.000000 0.000000
vn 0.000000 -1.000000 0.000000
vn 0.000000 -1.000000 0.000000
vn 0.000000 0.000000 -1.000000
vn 0.000000 0.000000 -1.000000
vn 0.000000 0.000000 -1.000000
vn 0.000000 0.000000 -1.000000
vn 0.000000 1.000000 0.000000
vn 0.000000 1.000000 0.000000
vn 0.000000 0.000000 1.000000
vn 0.000000 0.000000 1.000000
vn 0.000000 0.000000 1.000000
vn 0.000000 0.000000 1.000000
vn 0.000000 0.000000 1.000000
vn 1.000000 0.000000 0.000000
vn 1.000000 0.000000 0.000000
vn 0.000000 0.000000 -1.000000
vn 0.000000 0.000000 -1.000000
vn 0.000000 0.000000 -1.000000
vn 0.000000 0.000000 -1.000000
vn 0.000000 0.000000 -1.000000
vn 0.000000 0.000000 -1.000000
vn -1.000000 0.000000 0.000000
vn -1.000000 0.000000 0.000000
vn 0.000000 0.000000 -1.000000
vn 0.000000 0.000000 -1.000000
vn -0.000001 0.000000 -1.000000
vn -0.000000 0.000000 -1.000000
vn -0.000000 0.000000 -1.000000
vn -0.000000 0.000000 -1.000000
vn 1.000000 0.000000 0.000000
vn 1.000000 0.000000 0.000000
vn 1.000000 0.000000 0.000000
vn 1.000000 0.000000 0.000000
vn 0.000000 -1.000000 0.000000
vn 0.000000 -1.000000 0.000000
vn 0.000000 -1.000000 0.000000
vn 0.000000 -1.000000 0.000000
vn -1.000000 0.000000 0.000000
vn -1.000000 0.000000 0.000000
vn -1.000000 0.000000 0.000000
vn -1.000000 0.000000 0.000000
vn 0.000000 1.000000 0.000000
vn 0.000000 1.000000 0.000000
vn 0.000000 1.000000 0.000000
vn 0.000000 1.000000 0.000000
vn -0.707119 0.000000 -0.707094
vn -0.707119 0.000000 -0.707094
vn -0.707119 0.000000 -0.707094
vn -0.707119 0.000000 -0.707094
vn 0.000000 0.707107 -0.707106
vn 0.000000 0.707107 -0.707107
vn 0.000000 0.707107 -0.707107
vn 0.000000 0.707107 -0.707107
vn 0.707101 0.000000 -0.707112
vn 0.707101 0.000000 -0.707112
vn 0.707101 0.000000 -0.707112
vn 0.707101 0.000000 -0.707112
vn 0.000000 -0.707109 -0.707105
vn 0.000000 -0.707109 -0.707105
vn 0.000000 -0.707109 -0.707105
vn 0.000000 -0.707109 -0.707105
vn 0.000001 0.000000 -1.000000
vn -0.000001 0.000000 -1.000000
vn 0.000001 0.000000 -1.000000
vn -0.000001 0.000000 -1.000000
vn -0.000001 0.000000 -1.000000
vn 0.000000 1.000000 0.000000
vn 0.000000 1.000000 0.000000
vn 0.000000 1.000000 0.000000
vn 0.000000 1.000000 0.000000
vn 1.000000 0.000000 0.000001
vn 1.000000 0.000000 0.000001
vn 1.000000 0.000000 0.000001
vn 1.000000 0.000000 0.000001
vn 0.000000 -1.000000 -0.000004
vn 0.000000 -1.000000 -0.000004
vn 0.000000 -1.000000 -0.000004
vn 0.000000 -1.000000 -0.000004
vn -1.000000 0.000000 0.000000
vn -1.000000 0.000000 0.000000
vn -1.000000 0.000000 0.000000
vn -1.000000 0.000000 0.000000
s 1
g machie
usemtl initialShadingGroup
f 12/17/1 14/19/2 15/20/3 4/4/4
s 2
f 11/34/5 12/17/6 4/4/7 6/36/8
s off
f 19/41/9 20/43/10 21/45/11 22/47/12
s 3
f 9/15/13 10/16/14 8/7/15 2/9/16
s 4
f 15/20/17 16/21/18 6/11/19 4/4/20
s 5
f 18/22/21 13/18/22 3/3/23 5/13/24
s 3
f 7/6/25 10/16/14 9/15/13 1/8/26
s 6
f 5/5/27 11/34/28 17/32/29 18/23/30
s 2
f 3/3/31 12/17/6 11/34/5 5/5/32
s 1
f 13/18/33 14/19/2 12/17/1 3/3/34
f 1/1/35 9/14/36 14/19/2 13/18/33
f 15/20/3 14/19/2 9/14/36 2/2/37
s 4
f 2/2/38 8/10/39 16/21/18 15/20/17
s off
f 27/28/40 28/29/41 29/30/42 30/31/43
s 6
f 18/23/30 17/32/29 10/16/44 7/6/45
s 5
f 7/12/46 1/1/47 13/18/22 18/22/21
s 6
f 10/16/44 17/32/29 24/25/48 23/24/49
f 17/32/29 16/38/50 25/26/51 24/25/48
f 16/38/50 8/7/52 26/27/53 25/26/51
f 8/7/52 10/16/44 23/24/49 26/27/53
s off
f 23/24/54 24/25/55 28/29/56 27/28/57
f 24/25/58 25/26/59 29/30/60 28/29/61
f 25/26/62 26/27/63 30/31/64 29/30/65
f 26/27/66 23/24/67 27/28/68 30/31/69
f 31/33/70 32/46/71 38/44/72 37/39/73
f 32/46/74 31/33/75 33/35/76 34/40/77
f 34/40/78 33/35/79 35/37/80 36/42/81
f 36/42/82 35/37/83 37/39/84 38/44/85
s 6
f 16/38/50 17/32/29 33/35/86 31/33/87
f 17/32/29 11/34/28 35/37/88 33/35/86
f 11/34/28 6/36/89 37/39/90 35/37/88
f 6/36/89 16/38/50 31/33/87 37/39/90
s off
f 32/46/91 34/40/92 20/43/93 19/41/94
f 34/40/95 36/42/96 21/45/97 20/43/98
f 36/42/99 38/44/100 22/47/101 21/45/102
f 38/44/103 32/46/104 19/41/105 22/47/106
